<?xml version="1.0" encoding="utf-8"?>
<!-- Generator: Adobe Illustrator 25.3.0, SVG Export Plug-In . SVG Version: 6.00 Build 0)  -->
<svg version="1.1" id="Calque_1" focusable="false" xmlns="http://www.w3.org/2000/svg" xmlns:xlink="http://www.w3.org/1999/xlink"
	 x="0px" y="0px" viewBox="0 0 640 512" style="enable-background:new 0 0 640 512;" xml:space="preserve">
<style type="text/css">
	.st0{fill:#FF5901;}
</style>
<g>
	
		<image style="overflow:visible;opacity:0.6;" width="616" height="440" xlink:href="16A952C8.png"  transform="matrix(1 0 0 1 19 43)">
	</image>
	<g>
		<path class="st0" d="M519.1,229.1c3.8-9.8,5.9-20.5,5.9-31.7c0-48.5-39.4-87.9-87.9-87.9c-18,0-34.9,5.5-48.8,14.8
			C363,80.5,315.7,51,261.4,51C180.5,51,115,116.5,115,197.4c0,2.5,0.1,4.9,0.2,7.4c-51.2,18-88,66.9-88,124.4
			c0,72.8,59,131.8,131.8,131.8h336.8c64.7,0,117.1-52.4,117.1-117.1C612.9,287.2,572.6,239.9,519.1,229.1z M387.2,285.3h-59.9
			v102.5c0,8.1-6.6,14.6-14.6,14.6h-43.9c-8.1,0-14.6-6.6-14.6-14.6V285.3h-59.9c-13.1,0-19.6-15.7-10.3-25l96.5-96.5
			c5.7-5.7,15-5.7,20.7,0l96.5,96.5C406.8,269.5,400.2,285.3,387.2,285.3L387.2,285.3z"/>
	</g>
</g>
</svg>
