<?xml version="1.0" encoding="utf-8"?>
<!-- Generator: Adobe Illustrator 26.0.0, SVG Export Plug-In . SVG Version: 6.00 Build 0)  -->
<svg version="1.1" id="Layer_1" xmlns="http://www.w3.org/2000/svg" xmlns:xlink="http://www.w3.org/1999/xlink" x="0px" y="0px"
	 width="100px" height="100px" viewBox="0 0 100 100" style="enable-background:new 0 0 100 100;" xml:space="preserve">
<style type="text/css">
	.st0{fill:#EA580C;}
	.st1{fill:none;stroke:#EA580C;stroke-width:8;stroke-linecap:round;stroke-linejoin:round;stroke-miterlimit:10;}
</style>
<path class="st0" d="M9.2,56.7H8.6c-2.1,0-3.7-1.7-3.7-3.7V39.4c0-2.1,1.7-3.7,3.7-3.7h0.5c2.1,0,3.7,1.7,3.7,3.7V53
	C12.9,55,11.2,56.7,9.2,56.7z"/>
<path class="st0" d="M24.2,75.4h-0.5c-2.1,0-3.7-1.7-3.7-3.7V20.7c0-2.1,1.7-3.7,3.7-3.7h0.5c2.1,0,3.7,1.7,3.7,3.7v50.9
	C27.9,73.7,26.2,75.4,24.2,75.4z"/>
<path class="st0" d="M39.2,87.2h-0.5c-2.1,0-3.7-1.7-3.7-3.7V9c0-2.1,1.7-3.7,3.7-3.7h0.5c2.1,0,3.7,1.7,3.7,3.7v74.5
	C42.9,85.5,41.2,87.2,39.2,87.2z"/>
<path class="st0" d="M54.2,62.6h-0.5c-2.1,0-3.7-1.7-3.7-3.7V33.5c0-2.1,1.7-3.7,3.7-3.7h0.5c2.1,0,3.7,1.7,3.7,3.7v25.4
	C57.9,60.9,56.2,62.6,54.2,62.6z"/>
<polyline class="st1" points="61,17.6 89.6,46.2 61,74.8 "/>
</svg>
